<?xml version="1.0" encoding="UTF-8" standalone="no"?>
<!-- Created with Inkscape (http://www.inkscape.org/) -->

<svg
   xmlns:dc="http://purl.org/dc/elements/1.1/"
   xmlns:cc="http://creativecommons.org/ns#"
   xmlns:rdf="http://www.w3.org/1999/02/22-rdf-syntax-ns#"
   xmlns:svg="http://www.w3.org/2000/svg"
   xmlns="http://www.w3.org/2000/svg"
   xmlns:sodipodi="http://sodipodi.sourceforge.net/DTD/sodipodi-0.dtd"
   xmlns:inkscape="http://www.inkscape.org/namespaces/inkscape"
   width="200"
   height="200"
   viewBox="0 0 52.916665 52.916668"
   version="1.1"
   id="svg8"
   inkscape:version="0.92.5 (2060ec1f9f, 2020-04-08)"
   sodipodi:docname="experimenter.svg">
  <defs
     id="defs2">
    <inkscape:path-effect
       effect="spiro"
       id="path-effect5080"
       is_visible="true" />
    <inkscape:path-effect
       effect="spiro"
       id="path-effect5074"
       is_visible="true" />
  </defs>
  <sodipodi:namedview
     id="base"
     pagecolor="#ffffff"
     bordercolor="#666666"
     borderopacity="1.0"
     inkscape:pageopacity="0.0"
     inkscape:pageshadow="2"
     inkscape:zoom="2.8"
     inkscape:cx="54.095418"
     inkscape:cy="92.805014"
     inkscape:document-units="mm"
     inkscape:current-layer="layer1"
     showgrid="false"
     units="px"
     inkscape:window-width="1920"
     inkscape:window-height="1051"
     inkscape:window-x="-9"
     inkscape:window-y="-9"
     inkscape:window-maximized="1" />
  <metadata
     id="metadata5">
    <rdf:RDF>
      <cc:Work
         rdf:about="">
        <dc:format>image/svg+xml</dc:format>
        <dc:type
           rdf:resource="http://purl.org/dc/dcmitype/StillImage" />
        <dc:title></dc:title>
      </cc:Work>
    </rdf:RDF>
  </metadata>
  <g
     inkscape:label="Layer 1"
     inkscape:groupmode="layer"
     id="layer1"
     transform="translate(0,-244.08332)">
    <path
       style="fill:#d05dff;stroke:none;stroke-width:0.26458332px;stroke-linecap:butt;stroke-linejoin:miter;stroke-opacity:1;fill-opacity:0"
       d="m 11.255219,255.13222 c -2.1409403,0.28003 -4.880349,2.43163 -5.4902011,4.49566 -0.7658973,2.01056 -0.3796676,4.18083 -0.4733513,6.28356 0.2629771,2.09977 1.1158002,4.20493 2.0429053,6.13713 0.7761778,2.15499 1.9376417,4.19018 3.2982041,6.0509 1.149857,1.74796 2.7532,3.28932 4.720413,4.02233 1.73648,0.61998 3.255616,1.51946 4.774043,2.59398 1.307166,1.16006 3.148293,1.61611 4.874936,1.60643 1.411466,-0.0844 2.898425,0.24373 4.213297,-0.35158 1.560246,-0.0288 3.044836,-0.52314 4.613403,-0.4044 1.195135,0.30929 2.057066,1.51215 3.212795,1.70083 0.866512,0.26056 1.944996,0.0366 2.834818,-0.18859 1.675201,-0.87518 2.641923,-2.45056 3.314853,-4.10843 0.740314,-1.51736 0.666901,-3.25844 0.958943,-4.91481 0.04898,-1.58151 0.09944,-3.17785 0.07293,-4.77289 0.179423,-1.3545 0.161174,-2.73953 0.18898,-4.11739 0.01297,-1.6299 0.0845,-3.27707 -0.55613,-4.81582 -0.726307,-1.78913 -1.45243,-3.62442 -2.460922,-5.24598 -1.012162,-1.19581 -1.758317,-2.84384 -3.125054,-3.58576 -0.498294,-0.31018 -1.326701,-0.26033 -1.841547,-0.083 -1.002538,0.58656 -1.624421,1.92896 -2.410672,2.8228 -0.478819,0.97276 -1.666243,0.72969 -2.604878,0.75197 -1.472766,-0.36651 -2.388193,-1.9082 -2.592293,-3.3031 -0.51441,-1.14956 -0.632323,-2.5099 -1.17561,-3.65169 -0.391364,-1.67647 -1.62177,-3.11039 -3.171126,-3.81329 -1.327719,-0.52104 -2.778963,-0.8955 -4.204402,-1.14219 -1.292859,0.0892 -2.71043,-0.25024 -3.827584,0.48072 -0.954506,0.5554 -1.933334,1.41495 -2.447546,2.46081 -0.620768,0.95811 -0.837368,2.14635 -1.317646,3.19435 -0.152789,0.48904 -0.635898,0.74692 -0.770516,1.24295 -0.272468,0.13603 -0.454457,0.54415 -0.651042,0.6545 -0.114845,0.15777 -0.258636,0.39347 -0.53806,0.4651 -0.03483,0.13944 -0.710905,0.2214 -0.606351,0.0145"
       id="path5072"
       inkscape:connector-curvature="0"
       sodipodi:nodetypes="ccccccccccccccccccccccccccccccccc" />
    <path
       style="fill:#94fdf9;stroke:none;stroke-width:0.26458332px;stroke-linecap:butt;stroke-linejoin:miter;stroke-opacity:1;fill-opacity:1"
       d="m 10.394345,278.29016 c 0.04018,-1.94732 -1.1839737,-3.54533 -1.6526906,-5.38644 -0.6960012,-1.72304 -1.3629332,-3.49568 -1.7490871,-5.31472 -0.094749,-1.09023 0.1397563,-2.13616 0.2834818,-3.18947 0.9241111,-1.63596 1.7953254,-3.39091 3.3072919,-4.63021 1.70678,-1.33657 3.530249,-2.59168 5.53271,-3.48329 1.324934,-0.87256 2.850288,-0.97677 4.389164,-0.86343 2.266856,0.4127 4.567438,0.15141 6.475191,1.36763 1.466604,1.00495 4.432578,2.21893 5.525553,4.39651 1.116558,1.46177 -0.811539,3.84372 0.163312,5.4004 0.701557,0.83674 1.708484,1.48985 2.859318,1.30879 1.200264,0.0551 2.399318,-0.0296 3.497462,-0.56698 1.218663,-0.304 1.941181,-1.58891 2.7325,-2.55707 0.555248,-1.11759 1.89869,-1.56059 2.966935,-1.06755 1.400613,1.02855 3.099547,1.94645 4.127953,3.43553 0.95037,1.64268 1.341326,3.59202 1.521681,5.4787 0.187574,1.25058 0.02258,2.55136 0.101929,3.82059 -0.74439,1.92889 -2.144848,3.66593 -3.961538,4.70145 -1.176656,1.09498 -2.695243,1.94793 -3.331717,3.4807 -0.504405,1.10316 -0.363413,2.30746 -0.377982,3.49628 0.439216,0.95535 1.252653,1.72165 1.984372,2.36234 0.580174,1.03222 -0.604018,1.52859 -1.432618,1.76341 -1.481045,0.0754 -2.768288,1.01699 -4.282527,0.78787 -1.508387,-0.0467 -3.043834,0.10263 -4.531546,-0.0918 -1.70534,-0.55886 -3.208007,-1.64673 -4.021921,-3.30997 -1.381709,-1.44687 -1.601915,-3.56599 -2.645833,-5.19717 -0.328278,-0.78534 -0.44971,-1.81115 -1.220272,-2.14382 -0.911659,-0.28226 -1.9985,-0.0437 -2.984813,-0.128 -1.641468,0.16905 -2.678548,1.59277 -3.826848,2.64981 -0.776633,1.19576 -1.660434,2.08866 -2.645827,3.11828 -0.842441,0.85173 -1.787294,1.4267 -2.834826,1.88988 -1.252448,0.52431 -2.740539,0.52321 -4.133224,0.567 -1.1610055,0.15877 -2.3631212,-0.29373 -2.9553546,-1.27298 -0.6291992,-0.75485 -1.0710958,-1.60208 -1.4608032,-2.50776 -0.211169,-0.78667 -0.173419,-1.70526 -0.103482,-2.50898 0.4872933,-0.6206 0.9259914,-1.3128 1.6602672,-1.74236 0.3376265,-0.37375 0.9389296,-0.72825 1.4122014,-0.9915 0.3291059,-0.41008 0.8067811,-0.80953 1.0412885,-1.15876 0.072393,-0.20171 0.2398097,-0.19103 0.1923537,-0.4015 0.187772,-0.0904 0.373781,-0.44468 0.411873,-0.70552 -0.168025,-0.28533 0.294458,-0.55939 -0.03393,-0.80586 z"
       id="path5078"
       inkscape:connector-curvature="0"
       sodipodi:nodetypes="cccccccccccccccccccccccccccccccccccccccccc" />
  </g>
</svg>
